<mxfile host="Electron" modified="2023-05-22T06:08:00.173Z" agent="Mozilla/5.0 (Macintosh; Intel Mac OS X 10_15_7) AppleWebKit/537.36 (KHTML, like Gecko) draw.io/21.2.1 Chrome/112.0.5615.87 Electron/24.1.2 Safari/537.36" etag="IPpAK62mpZ4tTBwG_1BI" version="21.2.1" type="device">
  <diagram name="第 1 页" id="WQRsWZXMIezKSM4RHjdc">
    <mxGraphModel dx="901" dy="674" grid="1" gridSize="10" guides="1" tooltips="1" connect="1" arrows="1" fold="1" page="1" pageScale="1" pageWidth="827" pageHeight="1169" math="0" shadow="0">
      <root>
        <mxCell id="0" />
        <mxCell id="1" parent="0" />
        <mxCell id="_8J5g_3Jw-EErBX4yahz-1" value="" style="rounded=1;whiteSpace=wrap;html=1;fillColor=#f5f5f5;fontColor=#333333;strokeColor=#666666;" vertex="1" parent="1">
          <mxGeometry x="100" y="380" width="360" height="240" as="geometry" />
        </mxCell>
        <mxCell id="_8J5g_3Jw-EErBX4yahz-2" value="Nginx" style="rounded=0;whiteSpace=wrap;html=1;fillColor=#d5e8d4;strokeColor=#82b366;" vertex="1" parent="1">
          <mxGeometry x="134" y="490" width="80" height="40" as="geometry" />
        </mxCell>
        <mxCell id="_8J5g_3Jw-EErBX4yahz-8" value="Machine" style="rounded=1;whiteSpace=wrap;html=1;fillColor=#f5f5f5;gradientColor=#b3b3b3;strokeColor=#666666;" vertex="1" parent="1">
          <mxGeometry x="110" y="390" width="90" height="40" as="geometry" />
        </mxCell>
        <mxCell id="_8J5g_3Jw-EErBX4yahz-10" style="edgeStyle=orthogonalEdgeStyle;rounded=0;orthogonalLoop=1;jettySize=auto;html=1;exitX=0.5;exitY=1;exitDx=0;exitDy=0;" edge="1" parent="1">
          <mxGeometry relative="1" as="geometry">
            <mxPoint x="235" y="460" as="sourcePoint" />
            <mxPoint x="235" y="460" as="targetPoint" />
          </mxGeometry>
        </mxCell>
        <mxCell id="_8J5g_3Jw-EErBX4yahz-11" value="php-fpm" style="rounded=0;whiteSpace=wrap;html=1;fillColor=#b1ddf0;strokeColor=#10739e;" vertex="1" parent="1">
          <mxGeometry x="324" y="490" width="90" height="40" as="geometry" />
        </mxCell>
        <mxCell id="_8J5g_3Jw-EErBX4yahz-12" value="" style="endArrow=classic;html=1;rounded=0;exitX=1;exitY=0.25;exitDx=0;exitDy=0;entryX=0;entryY=0.25;entryDx=0;entryDy=0;" edge="1" parent="1" source="_8J5g_3Jw-EErBX4yahz-2" target="_8J5g_3Jw-EErBX4yahz-11">
          <mxGeometry width="50" height="50" relative="1" as="geometry">
            <mxPoint x="244" y="500" as="sourcePoint" />
            <mxPoint x="294" y="450" as="targetPoint" />
          </mxGeometry>
        </mxCell>
        <mxCell id="_8J5g_3Jw-EErBX4yahz-13" value="PHP" style="rounded=0;whiteSpace=wrap;html=1;fillColor=#dae8fc;strokeColor=#6c8ebf;" vertex="1" parent="1">
          <mxGeometry x="234" y="470" width="60" height="30" as="geometry" />
        </mxCell>
        <mxCell id="_8J5g_3Jw-EErBX4yahz-14" value="" style="endArrow=classic;html=1;rounded=0;exitX=0;exitY=0.75;exitDx=0;exitDy=0;entryX=1;entryY=0.75;entryDx=0;entryDy=0;dashed=1;" edge="1" parent="1" source="_8J5g_3Jw-EErBX4yahz-11" target="_8J5g_3Jw-EErBX4yahz-2">
          <mxGeometry width="50" height="50" relative="1" as="geometry">
            <mxPoint x="364" y="600" as="sourcePoint" />
            <mxPoint x="414" y="550" as="targetPoint" />
          </mxGeometry>
        </mxCell>
        <mxCell id="_8J5g_3Jw-EErBX4yahz-15" value="php iterpreter" style="ellipse;whiteSpace=wrap;html=1;fillColor=#dae8fc;strokeColor=#6c8ebf;gradientColor=#7ea6e0;" vertex="1" parent="1">
          <mxGeometry x="339" y="565" width="60" height="40" as="geometry" />
        </mxCell>
        <mxCell id="_8J5g_3Jw-EErBX4yahz-16" value="" style="endArrow=classic;html=1;rounded=0;exitX=0.5;exitY=1;exitDx=0;exitDy=0;entryX=0.5;entryY=0;entryDx=0;entryDy=0;dashed=1;" edge="1" parent="1" source="_8J5g_3Jw-EErBX4yahz-11" target="_8J5g_3Jw-EErBX4yahz-15">
          <mxGeometry width="50" height="50" relative="1" as="geometry">
            <mxPoint x="370" y="570" as="sourcePoint" />
            <mxPoint x="420" y="520" as="targetPoint" />
          </mxGeometry>
        </mxCell>
      </root>
    </mxGraphModel>
  </diagram>
</mxfile>
